<?xml version="1.0" encoding="UTF-8"?><svg id="Layer_2" xmlns="http://www.w3.org/2000/svg" viewBox="0 0 274.34 16.9"><defs><style>.cls-1{stroke-width:0px;}</style></defs><g id="Layer_1-2"><path class="cls-1" d="m2.18,16.63H0V.26h2.66l12.05,14.54L26.74.26h2.62v16.37h-2.16V2.83l-11.42,13.8h-2.16L2.18,2.83v13.8Z"/><path class="cls-1" d="m54.91,16.9c-2.88,0-5.26-.3-7.14-.89s-3.28-1.51-4.2-2.76c-.92-1.25-1.38-2.85-1.38-4.8s.46-3.57,1.38-4.81c.92-1.24,2.32-2.16,4.2-2.75,1.88-.59,4.26-.89,7.14-.89s5.26.3,7.14.89c1.88.59,3.28,1.51,4.19,2.75.91,1.24,1.37,2.84,1.37,4.81s-.46,3.55-1.37,4.8c-.91,1.25-2.31,2.17-4.19,2.76-1.88.59-4.26.89-7.14.89Zm0-1.9c1.94,0,3.58-.13,4.92-.4,1.34-.26,2.43-.67,3.25-1.21s1.42-1.22,1.79-2.04.55-1.78.55-2.9-.18-2.09-.55-2.9c-.37-.82-.96-1.5-1.79-2.04-.82-.54-1.91-.95-3.25-1.21-1.34-.26-2.98-.4-4.92-.4-2.59,0-4.66.24-6.2.71-1.54.47-2.65,1.19-3.32,2.16s-1.01,2.2-1.01,3.68.34,2.72,1.01,3.68,1.78,1.69,3.32,2.16,3.61.71,6.2.71Z"/><path class="cls-1" d="m82.63,16.63h-2.18V.26h15.48c.99,0,1.87.1,2.64.3s1.4.51,1.91.94.88.97,1.14,1.63c.26.66.38,1.44.38,2.34,0,1.14-.21,2.08-.62,2.83s-1.04,1.32-1.88,1.72c-.84.39-1.9.6-3.18.64h-2.14l1.54,1.13,5.86,4.85h-2.78l-7.06-5.88h-9.1v5.88Zm0-14.47v6.89h13.2c1.41,0,2.42-.27,3.02-.82.61-.54.91-1.42.91-2.62s-.3-2.14-.91-2.66c-.61-.53-1.62-.79-3.02-.79h-13.2Z"/><path class="cls-1" d="m115.08,16.63V.26h15.67c.99,0,1.87.1,2.63.3s1.4.5,1.91.91c.51.41.9.93,1.15,1.57.26.64.38,1.41.38,2.3,0,1.22-.23,2.22-.7,3s-1.14,1.36-2.04,1.73c-.9.37-2.01.55-3.34.55h-13.49v6h-2.18Zm15.55-14.47h-13.37v6.58h13.37c1.38,0,2.38-.26,3.01-.77.63-.51.95-1.35.95-2.52s-.32-2.03-.95-2.53c-.63-.5-1.64-.76-3.01-.76Z"/><path class="cls-1" d="m151.34,16.63h-2.18V.26h2.18v6.89h17.57V.26h2.18v16.37h-2.18v-7.58h-17.57v7.58Z"/><path class="cls-1" d="m205.34,16.63h-20.95V.26h20.95v1.78h-18.77v5.45h18.31v1.54h-18.31v5.83h18.77v1.78Z"/><path class="cls-1" d="m238.34,8.16V.26h2.18v8.26c0,1.9-.45,3.47-1.34,4.7-.9,1.23-2.18,2.15-3.84,2.76-1.67.61-3.66.91-5.98.91s-4.32-.3-5.99-.91c-1.67-.61-2.96-1.53-3.85-2.76-.9-1.23-1.34-2.8-1.34-4.7V.26h2.18v7.9c0,1.54.32,2.81.97,3.83.65,1.02,1.64,1.77,2.98,2.27s3.02.74,5.05.74,3.71-.25,5.04-.74,2.32-1.25,2.96-2.27c.65-1.02.97-2.29.97-3.83Z"/><path class="cls-1" d="m274.34,12.41c0,.8-.16,1.48-.48,2.05-.32.57-.86,1.03-1.61,1.39s-1.77.62-3.06.79c-1.29.17-2.91.25-4.86.25-1.2,0-2.47-.05-3.82-.14-1.34-.1-2.64-.23-3.88-.41-1.24-.18-2.32-.36-3.25-.55l.31-1.8c.75.16,1.58.31,2.48.44.9.14,1.85.26,2.84.36.99.1,1.98.18,2.96.24.98.06,1.91.08,2.77.08,1.58,0,2.86-.05,3.84-.16.98-.1,1.73-.26,2.26-.48.53-.22.89-.5,1.09-.85s.3-.78.3-1.27c0-.7-.14-1.23-.41-1.58-.27-.35-.68-.61-1.21-.77s-1.2-.29-2-.38l-9.43-.91c-1.28-.11-2.37-.31-3.28-.59-.9-.28-1.59-.7-2.06-1.27-.47-.57-.71-1.36-.71-2.36,0-1.07.31-1.94.94-2.6.62-.66,1.66-1.14,3.1-1.44,1.44-.3,3.38-.44,5.81-.44.82,0,1.69.03,2.62.08.93.06,1.87.13,2.82.23.95.1,1.88.21,2.77.34.9.13,1.7.27,2.42.43l-.36,1.7c-.69-.14-1.48-.28-2.36-.4-.89-.12-1.82-.22-2.78-.31-.97-.09-1.92-.16-2.87-.22-.94-.06-1.82-.08-2.64-.08-1.54,0-2.79.05-3.77.14-.98.1-1.72.25-2.24.47-.52.22-.88.49-1.08.83s-.3.75-.3,1.25c0,.61.15,1.08.46,1.4.3.33.74.56,1.32.7.58.14,1.28.25,2.11.35l9.14.89c.93.1,1.77.23,2.52.4.75.17,1.39.42,1.92.74.53.33.94.77,1.22,1.33.29.56.43,1.27.43,2.14Z"/></g></svg>